<?xml version="1.0" encoding="UTF-8"?>
<svg width="24px" height="24px" viewBox="0 0 24 24" version="1.1" xmlns="http://www.w3.org/2000/svg" xmlns:xlink="http://www.w3.org/1999/xlink">
    <title>Claim</title>
    <g id="Claim" stroke="none" stroke-width="1" fill="none" fill-rule="evenodd">
        <g id="Group-4" transform="translate(2.000000, 2.000000)" fill="#8293A6">
            <path d="M18.00045,11.15515 C17.06045,10.95065 16.16545,10.84565 15.29545,10.84565 C12.65045,10.84565 10.76045,11.80015 9.10045,12.64065 C7.65045,13.37065 6.40045,14.00015 4.70545,14.00015 C3.88045,14.00015 2.99045,13.85515 2.00045,13.56065 L2.00045,4.84565 C2.94045,5.05015 3.83545,5.15515 4.70545,5.15515 C7.35045,5.15515 9.24045,4.20065 10.90045,3.36015 C12.35045,2.63015 13.60045,2.00015 15.29545,2.00015 C16.12045,2.00015 17.01045,2.14515 18.00045,2.44015 L18.00045,11.15515 Z M15.29545,0.00015 C10.95045,0.00015 9.05045,3.15515 4.70545,3.15515 C3.90045,3.15515 3.00545,3.04515 2.00045,2.79065 L2.00045,0.00015 L0.00045,0.00015 L0.00045,2.13015 L0.00045,14.97565 L0.00045,20.00015 L2.00045,20.00015 L2.00045,15.63515 C3.00545,15.89065 3.90045,16.00015 4.70545,16.00015 C9.05045,16.00015 10.95045,12.84565 15.29545,12.84565 C16.60045,12.84565 18.12545,13.13015 20.00045,13.87065 L20.00045,1.02515 C18.12545,0.28565 16.60045,0.00015 15.29545,0.00015 L15.29545,0.00015 Z" id="Fill-2"></path>
        </g>
    </g>
</svg>
