<?xml version="1.0" encoding="UTF-8"?>
<svg width="24px" height="24px" viewBox="0 0 24 24" version="1.1" xmlns="http://www.w3.org/2000/svg" xmlns:xlink="http://www.w3.org/1999/xlink">
    <title>Governance</title>
    <g id="Governance" stroke="none" strokeWidth="1" fill="none" fill-rule="evenodd">
        <g id="Group-4" transform="translate(2.000000, 2.000000)" fill="#8293A6">
            <path d="M15.9991,17.999 C14.8961,17.999 13.9991,17.102 13.9991,15.999 C13.9991,14.896 14.8961,13.999 15.9991,13.999 C17.1021,13.999 17.9991,14.896 17.9991,15.999 C17.9991,17.102 17.1021,17.999 15.9991,17.999 M5.9991,15.999 C5.9991,17.102 5.1021,17.999 3.9991,17.999 C2.8961,17.999 1.9991,17.102 1.9991,15.999 C1.9991,14.896 2.8961,13.999 3.9991,13.999 C5.1021,13.999 5.9991,14.896 5.9991,15.999 M7.9991,3.999 C7.9991,2.896 8.8961,1.999 9.9991,1.999 C11.1021,1.999 11.9991,2.896 11.9991,3.999 C11.9991,5.102 11.1021,5.999 9.9991,5.999 C8.8961,5.999 7.9991,5.102 7.9991,3.999 M16.9991,12.141 L16.9991,8.999 L10.9991,8.999 L10.9991,7.857 C12.7221,7.411 13.9991,5.86 13.9991,3.999 C13.9991,1.79 12.2081,-0.001 9.9991,-0.001 C7.7901,-0.001 5.9991,1.79 5.9991,3.999 C5.9991,5.86 7.2761,7.411 8.9991,7.857 L8.9991,8.999 L2.9991,8.999 L2.9991,12.141 C1.2761,12.587 -0.000899999999,14.138 -0.000899999999,15.999 C-0.000899999999,18.208 1.7901,19.999 3.9991,19.999 C6.2081,19.999 7.9991,18.208 7.9991,15.999 C7.9991,14.138 6.7221,12.587 4.9991,12.141 L4.9991,10.999 L14.9991,10.999 L14.9991,12.141 C13.2761,12.587 11.9991,14.138 11.9991,15.999 C11.9991,18.208 13.7901,19.999 15.9991,19.999 C18.2081,19.999 19.9991,18.208 19.9991,15.999 C19.9991,14.138 18.7221,12.587 16.9991,12.141" id="Fill-2"></path>
        </g>
    </g>
</svg>
