<?xml version="1.0" encoding="UTF-8"?>
<svg width="24px" height="24px" viewBox="0 0 24 24" version="1.1" xmlns="http://www.w3.org/2000/svg" xmlns:xlink="http://www.w3.org/1999/xlink">
    <title>Liquidity</title>
    <g id="Liquidity" stroke="none" stroke-width="1" fill="none" fill-rule="evenodd">
        <g id="Group-6" transform="translate(2.000000, 5.000000)" fill="#8293A6">
            <path d="M10.0006,5.0007 C8.8966,5.0007 8.0006,5.8967 8.0006,7.0007 C8.0006,8.1047 8.8966,9.0007 10.0006,9.0007 C11.1046,9.0007 12.0006,8.1047 12.0006,7.0007 C12.0006,5.8967 11.1046,5.0007 10.0006,5.0007" id="Fill-2"></path>
            <path d="M17.9996,10.5759 C17.1526,10.4279 16.1516,10.3159 15.0616,10.3159 C13.1696,10.3159 11.3776,10.6459 9.7366,11.2999 C8.5686,11.7639 7.1916,11.9999 5.6446,11.9999 C4.2226,11.9999 2.9206,11.7989 1.9996,11.6059 L1.9996,3.3619 C3.0276,3.5389 4.2866,3.6839 5.6446,3.6839 C7.7006,3.6839 9.5746,3.3529 11.2156,2.6999 C12.3836,2.2359 13.6776,1.9999 15.0616,1.9999 C16.2226,1.9999 17.2516,2.1669 17.9996,2.3389 L17.9996,10.5759 Z M15.0616,-0.0001 C13.6506,-0.0001 12.0626,0.2109 10.4766,0.8429 C8.8886,1.4729 7.1956,1.6839 5.6446,1.6839 C2.5396,1.6839 -0.0004,0.8429 -0.0004,0.8429 L-0.0004,13.1579 C-0.0004,13.1579 2.5396,13.9999 5.6446,13.9999 C7.1956,13.9999 8.8896,13.7899 10.4766,13.1579 C12.0636,12.5259 13.6506,12.3159 15.0616,12.3159 C17.8836,12.3159 19.9996,13.1579 19.9996,13.1579 L19.9996,0.8429 C19.9996,0.8429 17.8836,-0.0001 15.0616,-0.0001 L15.0616,-0.0001 Z" id="Fill-4"></path>
        </g>
    </g>
</svg>