<?xml version="1.0" encoding="UTF-8"?>
<svg width="24px" height="24px" viewBox="0 0 24 24" version="1.1" xmlns="http://www.w3.org/2000/svg" xmlns:xlink="http://www.w3.org/1999/xlink">
    <title>Oracle</title>
    <g id="Oracle" stroke="none" strokeWidth="1" fill="none" fill-rule="evenodd">
        <g id="Group-9" transform="translate(2.000000, 2.000000)" fill="#8293A6">
            <g id="Group-8" transform="translate(0.000000, 0.000400)">
                <path d="M11.9994,9.9996 C11.9994,8.8956 11.1034,7.9996 9.9994,7.9996 C8.8954,7.9996 7.9994,8.8956 7.9994,9.9996 C7.9994,11.1036 8.8954,11.9996 9.9994,11.9996 C11.1034,11.9996 11.9994,11.1036 11.9994,9.9996" id="Fill-2"></path>
                <path d="M9.9994,-0.0004 C4.4764,-0.0004 -0.0006,4.4776 -0.0006,9.9996 C-0.0006,15.5216 4.4764,19.9996 9.9994,19.9996 C15.5224,19.9996 19.9994,15.5216 19.9994,9.9996 C19.9994,4.4776 15.5224,-0.0004 9.9994,-0.0004 M9.9994,1.9996 C14.4104,1.9996 17.9994,5.5886 17.9994,9.9996 C17.9994,14.4106 14.4104,17.9996 9.9994,17.9996 C5.5884,17.9996 1.9994,14.4106 1.9994,9.9996 C1.9994,5.5886 5.5884,1.9996 9.9994,1.9996" id="Fill-4"></path>
                <path d="M9.9994,3.9996 C6.6864,3.9996 3.9994,6.6866 3.9994,9.9996 C3.9994,13.3126 6.6864,15.9996 9.9994,15.9996 C13.3124,15.9996 15.9994,13.3126 15.9994,9.9996 C15.9994,6.6866 13.3124,3.9996 9.9994,3.9996 M9.9994,5.9996 C12.2044,5.9996 13.9994,7.7936 13.9994,9.9996 C13.9994,12.2056 12.2044,13.9996 9.9994,13.9996 C7.7944,13.9996 5.9994,12.2056 5.9994,9.9996 C5.9994,7.7936 7.7944,5.9996 9.9994,5.9996" id="Fill-6"></path>
            </g>
        </g>
    </g>
</svg>
