<?xml version="1.0" standalone="no"?>
<!DOCTYPE svg PUBLIC "-//W3C//DTD SVG 20010904//EN"
 "http://www.w3.org/TR/2001/REC-SVG-20010904/DTD/svg10.dtd">
<svg version="1.0" xmlns="http://www.w3.org/2000/svg"
 width="260.000000pt" height="260.000000pt" viewBox="0 0 260.000000 260.000000"
 preserveAspectRatio="xMidYMid meet">
<metadata>
Created by potrace 1.11, written by Peter Selinger 2001-2013
</metadata>
<g transform="translate(0.000000,260.000000) scale(0.100000,-0.100000)"
fill="#000000" stroke="none">
<path d="M1225 2551 c-44 -26 -297 -172 -563 -325 l-482 -279 0 -647 0 -648
533 -307 c292 -169 546 -316 562 -326 l31 -18 244 141 c135 78 387 223 560
324 l315 182 3 651 2 650 -67 39 c-38 21 -203 117 -368 212 -165 95 -385 222
-490 283 -104 60 -192 111 -195 113 -3 1 -41 -19 -85 -45z m175 -254 l75 -43
3 -303 c2 -257 4 -302 16 -298 8 3 130 71 270 151 l256 146 76 -48 c42 -26 75
-51 74 -57 0 -5 -72 -51 -158 -101 -86 -50 -275 -159 -418 -242 -144 -84 -269
-155 -278 -158 -15 -6 -16 38 -16 495 0 394 3 501 13 501 6 -1 46 -20 87 -43z
m-571 -742 c237 -132 431 -242 431 -245 0 -3 -39 -28 -87 -56 -49 -28 -245
-142 -436 -253 -192 -112 -351 -200 -354 -197 -3 3 -8 47 -10 98 l-5 93 271
154 272 154 -28 17 c-15 9 -138 78 -272 154 l-243 139 6 51 c3 28 6 71 6 94 0
24 4 42 10 40 5 -1 203 -111 439 -243z m753 -431 c139 -81 327 -190 418 -242
91 -52 171 -100 177 -106 10 -9 -6 -23 -71 -63 l-83 -51 -254 150 c-140 83
-260 152 -266 155 -10 4 -13 -60 -13 -300 l0 -306 -86 -47 c-47 -25 -87 -44
-89 -42 -2 2 -5 230 -7 506 -2 376 0 501 9 498 6 -3 125 -71 265 -152z"/>
</g>
</svg>
