<?xml version="1.0" encoding="UTF-8"?>
<svg width="72px" height="72px" viewBox="0 0 72 72" version="1.1" xmlns="http://www.w3.org/2000/svg" xmlns:xlink="http://www.w3.org/1999/xlink">
    <title>court</title>
    <g id="court" stroke="none" stroke-width="1" fill="none" fill-rule="evenodd">
        <path d="M18.5002559,6 L1,36.4997425 L18.5002559,67 L53.4997441,67 L71,36.4997425 L53.5002559,6 L18.5002559,6 Z M21.8501163,12.0559595 L27.2357948,11.910703 L35.588434,26.5568841 L43.861729,11.9828161 L49.1086833,12.0585349 L35.7420034,36.1010597 L21.8501163,12.0559595 Z M50.323929,12.4402195 L53.1194039,17.0750348 L44.6183142,31.6341651 L61.2974858,31.6403462 L63.8334284,36.2633143 L36.456613,36.4997425 L50.323929,12.4402195 Z M10.3984468,31.7639688 L26.7720153,31.7639688 L18.535065,17.1703272 L21.2757668,12.6678911 L35.0089655,36.4997425 L7.77548155,36.4997425 L10.3984468,31.7639688 Z M36.456613,37.2667173 L63.690097,37.2667173 L61.0671318,42.0019759 L44.6935632,42.0019759 L52.9305135,56.5966477 L50.1892999,61.0990838 L36.456613,37.2667173 Z M18.535065,56.7990796 L26.8723473,42.1333249 L10.1921519,42.1292041 L7.65569742,37.5067511 L35.0325128,37.2667173 L21.3310517,61.4333798 L18.535065,56.7990796 Z M22.3712284,61.6929871 L35.7368844,37.6509774 L49.6287716,61.6960777 L44.2436049,61.8413342 L35.8904538,47.1951531 L27.6176707,61.7687059 L22.3712284,61.6929871 Z" id="Fill-1" fill="#E6007A"></path>
    </g>
</svg>