<?xml version="1.0" encoding="utf-8"?>
<!-- Generator: Adobe Illustrator 16.0.0, SVG Export Plug-In . SVG Version: 6.00 Build 0)  -->
<!DOCTYPE svg PUBLIC "-//W3C//DTD SVG 1.1//EN" "http://www.w3.org/Graphics/SVG/1.1/DTD/svg11.dtd">
<svg version="1.1" id="Layer_1" xmlns="http://www.w3.org/2000/svg" xmlns:xlink="http://www.w3.org/1999/xlink" x="0px" y="0px"
	 width="1240.917px" height="310.994px" viewBox="0 0 1240.917 310.994" enable-background="new 0 0 1240.917 310.994"
	 xml:space="preserve">
<rect x="1721.667" y="1679.791" fill="#051DA6" width="1000" height="591.203"/>
<polygon fill="#0742F2" points="135.035,0.939 0.961,78.348 0.961,233.163 135.035,310.57 269.109,233.163 269.109,78.348 "/>
<g>
	<path fill="#fff" d="M441.14,155.28c0,42.927-26.089,65.685-57.914,65.685c-32.935,0-56.063-25.534-56.063-63.279
		c0-39.596,24.608-65.5,57.914-65.5C419.122,92.186,441.14,118.275,441.14,155.28z M344.371,157.316
		c0,26.644,14.432,50.513,39.781,50.513c25.534,0,39.966-23.499,39.966-51.808c0-24.793-12.952-50.698-39.781-50.698
		C357.692,105.323,344.371,129.932,344.371,157.316z"/>
	<path fill="#fff" d="M454.09,158.611c0-11.472-0.37-20.723-0.74-29.234h14.617l0.74,15.357h0.37
		c6.661-10.917,17.208-17.393,31.825-17.393c21.648,0,37.931,18.318,37.931,45.517c0,32.195-19.613,48.107-40.706,48.107
		c-11.842,0-22.204-5.181-27.569-14.062h-0.37v48.663H454.09V158.611z M470.188,182.479c0,2.405,0.37,4.626,0.74,6.661
		c2.96,11.287,12.767,19.058,24.423,19.058c17.208,0,27.199-14.063,27.199-34.601c0-17.948-9.437-33.305-26.644-33.305
		c-11.102,0-21.463,7.956-24.608,20.168c-0.555,2.035-1.11,4.44-1.11,6.661V182.479z"/>
	<path fill="#fff" d="M571.765,103.658v25.719h23.313v12.397h-23.313v48.292c0,11.102,3.146,17.393,12.212,17.393
		c4.255,0,7.401-0.555,9.437-1.11l0.74,12.212c-3.146,1.295-8.141,2.22-14.432,2.22c-7.586,0-13.692-2.405-17.578-6.846
		c-4.625-4.811-6.291-12.767-6.291-23.313v-48.848h-13.877v-12.397h13.877v-21.463L571.765,103.658z"/>
	<path fill="#fff" d="M624.126,104.213c0.185,5.551-3.885,9.991-10.361,9.991c-5.736,0-9.807-4.44-9.807-9.991
		c0-5.736,4.256-10.177,10.177-10.177C620.241,94.036,624.126,98.477,624.126,104.213z M605.993,218.93v-89.554h16.283v89.554
		H605.993z"/>
	<path fill="#fff" d="M723.115,173.413c0,33.12-22.944,47.552-44.592,47.552c-24.239,0-42.926-17.763-42.926-46.072
		c0-29.975,19.613-47.552,44.407-47.552C705.722,127.341,723.115,146.029,723.115,173.413z M652.064,174.338
		c0,19.613,11.287,34.415,27.199,34.415c15.542,0,27.199-14.617,27.199-34.785c0-15.172-7.586-34.415-26.829-34.415
		C660.39,139.553,652.064,157.316,652.064,174.338z"/>
	<path fill="#fff" d="M736.435,153.615c0-9.251-0.185-16.837-0.74-24.239h14.433l0.925,14.802h0.37
		c4.44-8.511,14.803-16.837,29.604-16.837c12.397,0,31.64,7.401,31.64,38.116v53.473h-16.282v-51.623
		c0-14.432-5.365-26.459-20.723-26.459c-10.732,0-19.059,7.586-21.834,16.653c-0.74,2.035-1.11,4.811-1.11,7.586v53.843h-16.282
		V153.615z"/>
	<path fill="#fff" d="M832.463,95.887c8.141-1.666,19.798-2.591,30.899-2.591c17.207,0,28.31,3.146,36.08,10.177
		c6.291,5.551,9.807,14.062,9.807,23.684c0,16.467-10.361,27.384-23.498,31.825v0.555c9.621,3.331,15.357,12.212,18.317,25.164
		c4.07,17.393,7.031,29.419,9.621,34.23h-16.652c-2.035-3.516-4.811-14.247-8.326-29.79c-3.7-17.208-10.361-23.684-24.979-24.239
		H848.56v54.028h-16.097V95.887z M848.56,152.69h16.468c17.208,0,28.124-9.436,28.124-23.684c0-16.097-11.656-23.128-28.679-23.313
		c-7.771,0-13.322,0.74-15.913,1.48V152.69z"/>
	<path fill="#fff" d="M1005.093,173.413c0,33.12-22.944,47.552-44.592,47.552c-24.239,0-42.927-17.763-42.927-46.072
		c0-29.975,19.612-47.552,44.406-47.552C987.699,127.341,1005.093,146.029,1005.093,173.413z M934.042,174.338
		c0,19.613,11.286,34.415,27.198,34.415c15.543,0,27.199-14.617,27.199-34.785c0-15.172-7.586-34.415-26.829-34.415
		C942.368,139.553,934.042,157.316,934.042,174.338z"/>
	<path fill="#fff" d="M1099.271,173.413c0,33.12-22.944,47.552-44.592,47.552c-24.239,0-42.927-17.763-42.927-46.072
		c0-29.975,19.612-47.552,44.406-47.552C1081.877,127.341,1099.271,146.029,1099.271,173.413z M1028.22,174.338
		c0,19.613,11.286,34.415,27.198,34.415c15.543,0,27.199-14.617,27.199-34.785c0-15.172-7.586-34.415-26.829-34.415
		C1036.546,139.553,1028.22,157.316,1028.22,174.338z"/>
	<path fill="#fff" d="M1112.405,153.615c0-9.251-0.185-16.837-0.74-24.239h14.247l0.74,14.432h0.556
		c4.995-8.511,13.321-16.467,28.124-16.467c12.212,0,21.463,7.401,25.349,17.948h0.37c2.775-4.996,6.291-8.881,9.991-11.657
		c5.366-4.071,11.287-6.291,19.799-6.291c11.842,0,29.419,7.771,29.419,38.856v52.733h-15.912v-50.698
		c0-17.208-6.291-27.569-19.428-27.569c-9.252,0-16.468,6.846-19.243,14.802c-0.74,2.221-1.295,5.181-1.295,8.142v55.323h-15.913
		v-53.658c0-14.247-6.291-24.609-18.688-24.609c-10.177,0-17.578,8.142-20.168,16.283c-0.926,2.405-1.295,5.181-1.295,7.956v54.028
		h-15.913V153.615z"/>
</g>
<polygon fill="#FFFFFF" points="135.035,151.37 239.801,90.627 220.008,78.502 155.851,114.936 155.851,42.51 135.035,30.907 "/>
<polygon fill="#051DA6" points="131.666,151.476 130.608,30.38 110.289,41.599 110.272,115.378 45.802,78.503 25.43,90.87 "/>
<polygon fill="#051DA6" points="136.789,154.615 242.477,213.738 242.809,190.529 178.745,153.935 243.129,116.988 242.489,93.165
	"/>
<polygon fill="#FFFFFF" points="135.035,157.775 136.076,278.873 156.397,267.655 156.424,193.876 220.426,231.48 240.8,219.115 "/>
<polygon fill="#051DA6" points="131.666,157.775 26.901,218.519 46.694,230.644 110.85,194.209 110.85,266.636 131.666,278.238 "/>
<polygon fill="#FFFFFF" points="129.977,154.591 24.289,95.468 23.957,118.677 88.021,155.272 23.638,192.218 24.277,216.042 "/>
<text transform="matrix(1 0 0 1 2060.5698 2004.6045)"><tspan x="0" y="0" fill="#FFFFFF" font-family="'Montserrat-SemiBold'" font-size="81.7149" letter-spacing="-3">Op</tspan><tspan x="96.422" y="0" fill="#FFFFFF" font-family="'Montserrat-SemiBold'" font-size="81.7149" letter-spacing="-3">t</tspan><tspan x="120.201" y="0" fill="#FFFFFF" font-family="'Montserrat-SemiBold'" font-size="81.7149" letter-spacing="-3">io</tspan><tspan x="177.809" y="0" fill="#FFFFFF" font-family="'Montserrat-SemiBold'" font-size="81.7149" letter-spacing="-3">n</tspan><tspan x="219.891" y="0" fill="#FFFFFF" font-family="'Montserrat-SemiBold'" font-size="81.7149" letter-spacing="-3">R</tspan><tspan x="260.667" y="0" fill="#FFFFFF" font-family="'Montserrat-SemiBold'" font-size="81.7149" letter-spacing="-3">oo</tspan><tspan x="343.852" y="0" fill="#FFFFFF" font-family="'Montserrat-SemiBold'" font-size="81.7149">m</tspan></text>
<path fill="#FFFFFF" d="M1978.66,1908.332l-59.212,34.186v68.372l59.212,34.187l59.213-34.187v-68.372L1978.66,1908.332z
	 M1929.463,1992.807l28.435-16.316l-28.293-16.162l0.146-10.249l46.676,26.11l-46.682,27.139L1929.463,1992.807z M1977.173,2030.797
	l-9.193-5.124v-31.986l-28.334,16.091l-8.742-5.354l46.269-26.827V2030.797z M1930.254,1948.048l8.998-5.462l28.473,16.285
	l0.007-32.582l8.973-4.956l0.468,53.48L1930.254,1948.048z M1978.66,1921.566l9.194,5.124v31.986l28.334-16.091l8.741,5.354
	l-46.269,26.827V1921.566z M2016.372,2010.146l-28.265-16.606l-0.012,32.584l-8.975,4.953l-0.46-53.481l46.71,27.09
	L2016.372,2010.146z M2026.258,1992.062l-0.146,10.249l-46.676-26.11l46.68-27.139l0.283,10.521l-28.434,16.316L2026.258,1992.062z"
	/>
<text transform="matrix(1 0 0 1 3044.1558 2004.6045)"><tspan x="0" y="0" fill="#1D1D1B" font-family="'Montserrat-SemiBold'" font-size="81.7149" letter-spacing="-3">Op</tspan><tspan x="96.422" y="0" fill="#1D1D1B" font-family="'Montserrat-SemiBold'" font-size="81.7149" letter-spacing="-3">t</tspan><tspan x="120.2" y="0" fill="#1D1D1B" font-family="'Montserrat-SemiBold'" font-size="81.7149" letter-spacing="-3">i</tspan><tspan x="136.135" y="0" fill="#1D1D1B" font-family="'Montserrat-SemiBold'" font-size="81.7149" letter-spacing="-3">o</tspan><tspan x="177.727" y="0" fill="#1D1D1B" font-family="'Montserrat-SemiBold'" font-size="81.7149" letter-spacing="-3">nR</tspan><tspan x="260.666" y="0" fill="#1D1D1B" font-family="'Montserrat-SemiBold'" font-size="81.7149" letter-spacing="-3">o</tspan><tspan x="302.259" y="0" fill="#1D1D1B" font-family="'Montserrat-SemiBold'" font-size="81.7149" letter-spacing="-3">o</tspan><tspan x="343.934" y="0" fill="#1D1D1B" font-family="'Montserrat-SemiBold'" font-size="81.7149">m</tspan></text>
<path fill="#1D1D1B" d="M2962.247,1908.332l-59.213,34.186v68.372l59.213,34.187l59.212-34.187v-68.372L2962.247,1908.332z
	 M2913.049,1992.807l28.434-16.316l-28.293-16.162l0.146-10.249l46.676,26.11l-46.681,27.139L2913.049,1992.807z M2960.758,2030.797
	l-9.193-5.124v-31.986l-28.333,16.091l-8.741-5.354l46.268-26.827V2030.797z M2913.84,1948.048l8.997-5.462l28.473,16.285
	l0.008-32.582l8.974-4.956l0.467,53.48L2913.84,1948.048z M2962.247,1921.566l9.193,5.124v31.986l28.334-16.091l8.741,5.354
	l-46.269,26.827V1921.566z M2999.958,2010.146l-28.266-16.606l-0.012,32.584l-8.975,4.953l-0.46-53.481l46.71,27.09
	L2999.958,2010.146z M3009.843,1992.062l-0.146,10.249l-46.676-26.11l46.681-27.139l0.283,10.521l-28.435,16.316L3009.843,1992.062z
	"/>
</svg>
