<?xml version="1.0" encoding="UTF-8"?>
<svg width="72px" height="72px" viewBox="0 0 72 72" version="1.1" xmlns="http://www.w3.org/2000/svg" xmlns:xlink="http://www.w3.org/1999/xlink">
    <title>room</title>
    <g id="room" stroke="none" stroke-width="1" fill="none" fill-rule="evenodd">
        <path d="M36.5,1 L6,18.499872 L6,53.500128 L36.5,71 L67,53.500128 L67,18.499872 L36.5,1 Z M31.6405627,10.7015613 L36.2630548,8.16611211 L36.5,35.5431277 L12.4397588,21.6757103 L17.0746133,18.880215 L31.6348966,27.3818787 L31.6405627,10.7015613 Z M37.2664663,8.30944459 L42.0017648,10.9329409 L42.0017648,27.3066291 L56.5965598,19.0696186 L61.0995491,21.8108523 L37.2664663,35.5431277 L37.2664663,8.30944459 Z M37.6507296,36.2628615 L61.6960329,22.3703609 L61.8418057,27.7565907 L47.1949858,36.1087791 L61.7686618,44.3826465 L61.6934574,49.6296391 L37.6507296,36.2628615 Z M11.9102378,44.7645252 L26.5570577,36.411313 L11.9833817,28.1384694 L12.0585861,22.8914768 L36.1013139,36.2577425 L12.0560106,50.1497313 L11.9102378,44.7645252 Z M37.2664663,36.9672383 L61.4338479,50.6693115 L56.7989934,53.4648068 L42.13363,45.1284873 L42.1295092,61.8077809 L37.5075323,64.3447658 L37.2664663,36.9672383 Z M12.6674323,50.7235731 L36.5,36.9912977 L36.5,64.2249808 L31.7647014,61.6019964 L31.7647014,45.2283082 L17.1699064,53.4648068 L12.6674323,50.7235731 Z" id="Fill-1" fill="#0742F2"></path>
    </g>
</svg>