<?xml version="1.0" encoding="utf-8"?>
<!-- Generator: Adobe Illustrator 16.0.0, SVG Export Plug-In . SVG Version: 6.00 Build 0)  -->
<!DOCTYPE svg PUBLIC "-//W3C//DTD SVG 1.1//EN" "http://www.w3.org/Graphics/SVG/1.1/DTD/svg11.dtd">
<svg version="1.1" id="Layer_1" xmlns="http://www.w3.org/2000/svg" xmlns:xlink="http://www.w3.org/1999/xlink" x="0px" y="0px"
     width="1240.917px" height="310.994px" viewBox="0 0 1240.917 310.994" enable-background="new 0 0 1240.917 310.994"
     xml:space="preserve">
    <polygon fill="#0742F2" points="135.035,0.939 0.961,78.348 0.961,233.163 135.035,310.57 269.109,233.163 269.109,78.348 "/>
    <polygon fill="#FFFFFF" points="135.035,151.37 239.801,90.627 220.008,78.502 155.851,114.936 155.851,42.51 135.035,30.907 "/>
    <polygon fill="#051DA6" points="131.666,151.476 130.608,30.38 110.289,41.599 110.272,115.378 45.802,78.503 25.43,90.87 "/>
    <polygon fill="#051DA6" points="136.789,154.615 242.477,213.738 242.809,190.529 178.745,153.935 243.129,116.988 242.489,93.165
	"/>
    <polygon fill="#FFFFFF" points="135.035,157.775 136.076,278.873 156.397,267.655 156.424,193.876 220.426,231.48 240.8,219.115 "/>
    <polygon fill="#051DA6" points="131.666,157.775 26.901,218.519 46.694,230.644 110.85,194.209 110.85,266.636 131.666,278.238 "/>
    <polygon fill="#FFFFFF" points="129.977,154.591 24.289,95.468 23.957,118.677 88.021,155.272 23.638,192.218 24.277,216.042 "/>
    <text transform="matrix(1 0 0 1 2060.5698 2004.6045)"><tspan x="0" y="0" fill="#FFFFFF" font-family="'Montserrat-SemiBold'" font-size="81.7149" letter-spacing="-3">Op</tspan><tspan x="96.422" y="0" fill="#FFFFFF" font-family="'Montserrat-SemiBold'" font-size="81.7149" letter-spacing="-3">t</tspan><tspan x="120.201" y="0" fill="#FFFFFF" font-family="'Montserrat-SemiBold'" font-size="81.7149" letter-spacing="-3">io</tspan><tspan x="177.809" y="0" fill="#FFFFFF" font-family="'Montserrat-SemiBold'" font-size="81.7149" letter-spacing="-3">n</tspan><tspan x="219.891" y="0" fill="#FFFFFF" font-family="'Montserrat-SemiBold'" font-size="81.7149" letter-spacing="-3">R</tspan><tspan x="260.667" y="0" fill="#FFFFFF" font-family="'Montserrat-SemiBold'" font-size="81.7149" letter-spacing="-3">oo</tspan><tspan x="343.852" y="0" fill="#FFFFFF" font-family="'Montserrat-SemiBold'" font-size="81.7149">m</tspan></text>
    <path fill="#FFFFFF" d="M1978.66,1908.332l-59.212,34.186v68.372l59.212,34.187l59.213-34.187v-68.372L1978.66,1908.332z
	 M1929.463,1992.807l28.435-16.316l-28.293-16.162l0.146-10.249l46.676,26.11l-46.682,27.139L1929.463,1992.807z M1977.173,2030.797
	l-9.193-5.124v-31.986l-28.334,16.091l-8.742-5.354l46.269-26.827V2030.797z M1930.254,1948.048l8.998-5.462l28.473,16.285
	l0.007-32.582l8.973-4.956l0.468,53.48L1930.254,1948.048z M1978.66,1921.566l9.194,5.124v31.986l28.334-16.091l8.741,5.354
	l-46.269,26.827V1921.566z M2016.372,2010.146l-28.265-16.606l-0.012,32.584l-8.975,4.953l-0.46-53.481l46.71,27.09
	L2016.372,2010.146z M2026.258,1992.062l-0.146,10.249l-46.676-26.11l46.68-27.139l0.283,10.521l-28.434,16.316L2026.258,1992.062z"
    />
    <text transform="matrix(1 0 0 1 3044.1558 2004.6045)"><tspan x="0" y="0" fill="#1D1D1B" font-family="'Montserrat-SemiBold'" font-size="81.7149" letter-spacing="-3">Op</tspan><tspan x="96.422" y="0" fill="#1D1D1B" font-family="'Montserrat-SemiBold'" font-size="81.7149" letter-spacing="-3">t</tspan><tspan x="120.2" y="0" fill="#1D1D1B" font-family="'Montserrat-SemiBold'" font-size="81.7149" letter-spacing="-3">i</tspan><tspan x="136.135" y="0" fill="#1D1D1B" font-family="'Montserrat-SemiBold'" font-size="81.7149" letter-spacing="-3">o</tspan><tspan x="177.727" y="0" fill="#1D1D1B" font-family="'Montserrat-SemiBold'" font-size="81.7149" letter-spacing="-3">nR</tspan><tspan x="260.666" y="0" fill="#1D1D1B" font-family="'Montserrat-SemiBold'" font-size="81.7149" letter-spacing="-3">o</tspan><tspan x="302.259" y="0" fill="#1D1D1B" font-family="'Montserrat-SemiBold'" font-size="81.7149" letter-spacing="-3">o</tspan><tspan x="343.934" y="0" fill="#1D1D1B" font-family="'Montserrat-SemiBold'" font-size="81.7149">m</tspan></text>
    <path fill="#1D1D1B" d="M2962.247,1908.332l-59.213,34.186v68.372l59.213,34.187l59.212-34.187v-68.372L2962.247,1908.332z
	 M2913.049,1992.807l28.434-16.316l-28.293-16.162l0.146-10.249l46.676,26.11l-46.681,27.139L2913.049,1992.807z M2960.758,2030.797
	l-9.193-5.124v-31.986l-28.333,16.091l-8.741-5.354l46.268-26.827V2030.797z M2913.84,1948.048l8.997-5.462l28.473,16.285
	l0.008-32.582l8.974-4.956l0.467,53.48L2913.84,1948.048z M2962.247,1921.566l9.193,5.124v31.986l28.334-16.091l8.741,5.354
	l-46.269,26.827V1921.566z M2999.958,2010.146l-28.266-16.606l-0.012,32.584l-8.975,4.953l-0.46-53.481l46.71,27.09
	L2999.958,2010.146z M3009.843,1992.062l-0.146,10.249l-46.676-26.11l46.681-27.139l0.283,10.521l-28.435,16.316L3009.843,1992.062z
	"/>
</svg>
